<?xml version="1.0" encoding="iso-8859-1"?>
<!-- Generator: Adobe Illustrator 19.0.0, SVG Export Plug-In . SVG Version: 6.00 Build 0)  -->
<svg version="1.1" id="Layer_1" xmlns="http://www.w3.org/2000/svg" xmlns:xlink="http://www.w3.org/1999/xlink" x="0px" y="0px"
	 viewBox="0 0 460 460" style="enable-background:new 0 0 460 460;" xml:space="preserve">
<g>
	<path style="fill:#C2FBFF;" d="M230,0C102.974,0,0,102.975,0,230c0,95.341,58.01,177.133,140.66,212.004l316.177-250.235
		C438.629,82.939,344,0,230,0z"/>
	<path style="fill:#71E2F0;" d="M456.82,191.776l-83.986-83.985H133.383l-0.612,45.605l71.269,71.269l-52.365,62.729l64.162,64.163
		L80,377.39l67.265,67.265C172.94,454.558,200.833,460,230,460c127.026,0,230-102.975,230-230
		C460,216.976,458.9,204.21,456.82,191.776z"/>
	<path style="fill:#C2001B;" d="M327.229,153.396l45.606-45.606L327.229,153.396z"/>
	<path style="fill:#FF5419;" d="M318.52,53.47l40.17,40.18l-13.27,33.27l-32.33,12.33l-4.76-4.76V267.4l-78.46,10l-21.49-103.15
		L230,68.93l60.89-29.8c0,0-0.38-0.09,5.94,1.41C303.15,42.04,312.91,47.86,318.52,53.47z"/>
	<path style="fill:#FF0F27;" d="M87.165,107.791l45.606,45.606L87.165,107.791z"/>
	<path style="fill:#FF7F4F;" d="M230,68.93l-0.13,208.47l-78.2-10V134.49l-4.76,4.76l-32.579-12.579L101.31,93.65l40.17-40.18
		c5.61-5.61,15.37-11.43,21.69-12.93s5.94-1.41,5.94-1.41L230,68.93z"/>
	<polygon style="fill:#E03A00;" points="146.91,139.25 132.77,153.4 87.17,107.79 101.31,93.65 	"/>
	<polygon style="fill:#5488A8;" points="380,307.39 380,377.39 230,377.39 220,317.39 240,307.39 260,307.39 270,317.39 280,307.39 
		300,307.395 310,317.39 320,307.39 340,307.39 350,317.39 360,307.39 	"/>
	<polygon style="fill:#61A2B3;" points="230,307.39 230,377.39 80,377.39 80,307.39 100,307.39 110,317.39 120,307.39 140,307.39 
		150,317.39 160,307.39 180,307.39 190,317.39 200,307.39 220,307.39 	"/>
	<rect x="100" y="307.395" style="fill:#273B7A;" width="20" height="40"/>
	<rect x="140" y="307.395" style="fill:#273B7A;" width="20" height="30"/>
	<rect x="180" y="307.395" style="fill:#273B7A;" width="20" height="30"/>
	<rect x="220" y="307.395" style="fill:#273B7A;" width="20" height="40"/>
	<rect x="260" y="307.395" style="fill:#121149;" width="20" height="30"/>
	<rect x="300" y="307.395" style="fill:#121149;" width="20" height="30"/>
	<rect x="340" y="307.395" style="fill:#121149;" width="20" height="40"/>
	<polygon style="fill:#940030;" points="229.87,287.395 307.785,287.395 307.785,267.395 229.87,267.395 225.258,277.395 	"/>
	<rect x="152.215" y="267.395" style="fill:#E03A00;" width="77.655" height="20"/>
	<polygon style="fill:#940030;" points="358.69,93.65 372.83,107.79 327.23,153.4 313.09,139.25 	"/>
	<path style="fill:#940030;" d="M270.99,34.4c0,0,11.68,2.78,19.9,4.73c-10.31,23.41-33.72,39.8-60.89,39.8l-10-10l10-10
		C247.74,58.93,263.14,49,270.99,34.4z"/>
	<path style="fill:#E03A00;" d="M230,58.93v20c-27.17,0-50.58-16.39-60.89-39.8c8.22-1.95,19.9-4.73,19.9-4.73
		C196.86,49,212.26,58.93,230,58.93z"/>
</g>
<g>
</g>
<g>
</g>
<g>
</g>
<g>
</g>
<g>
</g>
<g>
</g>
<g>
</g>
<g>
</g>
<g>
</g>
<g>
</g>
<g>
</g>
<g>
</g>
<g>
</g>
<g>
</g>
<g>
</g>
</svg>
